:SAMPLES-PER-SECOND 30
:FULLY-SPECIFIED
:DEGREES
232
root  34.91739588 36.56666373 -14.14750768 11.06268215 -1.386594057 4.449626446
lowerback  -8.292340279 1.188290119 1.204240799
upperback  -4.307779789 2.09800005 -4.779085159
thorax  0.398378998 1.223829985 -5.459632874
lowerneck  -11.58150005 -9.207719803 -5.127950191
upperneck  11.85342884 -12.98828888 7.75508976
head  6.345910072 -6.092490196 2.038949966
lclavicle  0 -4.497500157e-015 -2.743230041e-014
lhumerus  -48.14020157 29.81200027 61.01490021
lradius  0.01906033605 -6.507048965e-006 28.43220139
lwrist  3.192251654e-007 -3.790274832e-007 -30.5442009
lhand  -0 -36.95500183 -10.71580029
lfingers  90 7.125020027 -90
lthumb  94.85060204 -25.54893905 101.1316801
rclavicle  0 -4.497500157e-015 -2.743230041e-014
rhumerus  56.15299606 -22.39029884 -50.2737999
rradius  -5.16745672e-007 2.214343908e-008 38.53639984
rwrist  0.0006954420824 -0.004670973402 -156.6869965
rhand  -1.77019945e-031 4.147980213 -7.438509941
rfingers  -90 -7.125020027 -90
rthumb  -85.08195512 -8.596730262 -60.07312642
rfemur  -12.52786446 13.6193819 11.83990765
rtibia  -0.7857494354 -1.450327039 19.34781265
rfoot  0.4886442125 -21.52508545 -36.84937286
rtoes  3.811304752 19.64810528 -101.2066107
lfemur  -5.780391216 -17.1043396 -22.73031807
ltibia  6.57826519 0.2713173926 8.000575066
lfoot  0.8042231798 -23.13689613 34.64530563
ltoes  -8.668037606 -18.09373602 -116.1450233
233
root  34.91859736 36.5666427 -14.14490497 11.05985546 -1.431540132 4.432689667
lowerback  -8.281669617 1.184910178 1.181929946
upperback  -4.315100193 2.095530033 -4.780076027
thorax  0.3840239942 1.219220877 -5.458082676
lowerneck  -11.59379959 -9.201609612 -5.113550186
upperneck  11.87629986 -12.9836998 7.747189999
head  6.353660107 -6.086702824 2.03392005
lclavicle  0 -4.497500157e-015 -2.743230041e-014
lhumerus  -48.15579987 29.77739906 61.03010178
lradius  0.01904025488 -6.507048965e-006 28.42939949
lwrist  3.192251654e-007 -3.790274832e-007 -30.49570084
lhand  -4.417268239e-031 -36.9280014 -10.7748003
lfingers  90 7.125020027 -90
lthumb  94.85049181 -25.60776373 101.1081755
rclavicle  0 -4.497500157e-015 -2.743230041e-014
rhumerus  55.95729446 -22.40909958 -50.18600082
rradius  -5.16745672e-007 2.214343908e-008 38.78990173
rwrist  0.0006954420824 -0.004670973402 -156.9140015
rhand  -1.77000414e-031 4.059869766 -7.365640163
rfingers  -90 -7.125020027 -90
rthumb  -85.06543446 -8.654237769 -60.15348924
rfemur  -12.52000237 13.64489365 11.83978748
rtibia  -0.7687888145 -1.43287456 19.32235718
rfoot  0.5184937716 -21.49502754 -36.80139542
rtoes  3.803324631 19.64959266 -101.1828783
lfemur  -5.754486084 -17.06652641 -22.73186684
ltibia  6.588877201 0.278082639 7.977887154
lfoot  0.8077169061 -23.14313698 34.66970062
ltoes  -8.658249288 -18.09829998 -116.1135101
234
root  34.91803267 36.56570555 -14.14179915 11.03851604 -1.458114624 4.427072525
lowerback  -8.294079781 1.178369999 1.180649996
upperback  -4.323550224 2.088150024 -4.780849934
thorax  0.3813270032 1.214720011 -5.45661974
lowerneck  -11.60719967 -9.189399719 -5.102600098
upperneck  11.89249992 -12.9698 7.743330002
head  6.355809212 -6.082360268 2.027661085
lclavicle  0 -4.497500157e-015 -2.743230041e-014
lhumerus  -48.18190002 29.81909943 60.97859955
lradius  0.01900314912 -6.507048965e-006 28.4172554
lwrist  3.192251654e-007 -3.790274832e-007 -30.56139755
lhand  -4.419094784e-031 -36.95949936 -10.73480034
lfingers  90 7.125020027 -90
lthumb  94.85676144 -25.56741503 101.1382029
rclavicle  0 -4.497500157e-015 -2.743230041e-014
rhumerus  55.75160217 -22.45509911 -50.08879852
rradius  -5.16745672e-007 2.214343908e-008 39.0625
rwrist  0.0006954420824 -0.004670973402 -157.227005
rhand  -1.769738713e-031 3.936939955 -7.353980064
rfingers  -90 -7.125020027 -90
rthumb  -85.08771204 -8.656589792 -60.27247766
rfemur  -12.48083305 13.70161533 11.83923912
rtibia  -0.7521283627 -1.426001787 19.29624176
rfoot  0.5222036839 -21.49959755 -36.8304863
rtoes  3.807813538 19.64875639 -101.1962278
lfemur  -5.617256641 -17.10366058 -22.78674507
ltibia  6.661927223 0.2375826091 7.819289207
lfoot  0.7747052908 -22.99586868 34.67620087
ltoes  -8.653079154 -18.10070802 -116.0968682
235
root  34.91669002 36.56571456 -14.13773815 11.04314804 -1.474382877 4.442006588
lowerback  -8.275979996 1.170009971 1.202270031
upperback  -4.327040195 2.073980093 -4.780979156
thorax  0.366636008 1.21441853 -5.45533514
lowerneck  -11.58990002 -9.188110352 -5.071899891
upperneck  11.89644051 -12.96940041 7.722819805
head  6.357201099 -6.080888748 2.021729469
lclavicle  0 -4.497500157e-015 -2.743230041e-014
lhumerus  -48.23669815 29.88100052 60.93239975
lradius  0.01894878969 -6.507048965e-006 28.43235207
lwrist  3.192251654e-007 -3.790274832e-007 -30.66379929
lhand  -4.417807257e-031 -36.93730164 -10.78250027
lfingers  90 7.125020027 -90
lthumb  94.85652206 -25.61495088 101.1188686
rclavicle  0 -4.497500157e-015 -2.743230041e-014
rhumerus  55.70899963 -22.60379982 -50.31639862
rradius  -5.16745672e-007 2.214343908e-008 39.18349838
rwrist  0.0006954420824 -0.004670973402 -157.3269958
rhand  -1.769628806e-031 3.884890079 -7.297520161
rfingers  -90 -7.125020027 -90
rthumb  -85.07136118 -8.702283751 -60.31895978
rfemur  -12.47947598 13.68980885 11.815382
rtibia  -0.7481892109 -1.456059337 19.29793549
rfoot  0.5096120238 -21.56437683 -36.82707596
rtoes  3.850446632 19.64076271 -101.3230413
lfemur  -5.399414539 -17.10093307 -22.8948307
ltibia  6.820291996 0.2148534954 7.464007378
lfoot  0.7368966341 -22.80447578 34.68086624
ltoes  -8.652077574 -18.10117431 -116.0936445
